<?xml version="1.0" encoding="UTF-8"?>
<!DOCTYPE svg PUBLIC "-//W3C//DTD SVG 1.1//EN" "http://www.w3.org/Graphics/SVG/1.1/DTD/svg11.dtd">
<!-- Creator: CorelDRAW 2018 (64-Bit) -->
<svg xmlns="http://www.w3.org/2000/svg" xml:space="preserve" width="100px" height="100px" version="1.1" shape-rendering="geometricPrecision" text-rendering="geometricPrecision" image-rendering="optimizeQuality" fill-rule="evenodd" clip-rule="evenodd"
viewBox="0 0 6610 6610"
 xmlns:xlink="http://www.w3.org/1999/xlink">
 <defs>
   <linearGradient id="id0" gradientUnits="userSpaceOnUse" x1="1110" y1="1110" x2="5490" y2="5490">
    <stop offset="0" stop-opacity="1" stop-color="#fff"/>
    <stop offset="1" stop-opacity="1" stop-color="#fff"/>
   </linearGradient>
 </defs>
 <g id="Слой_x0020_1">
  <metadata id="CorelCorpID_0Corel-Layer"/>
  <path fill="url(#id0)" d="M4560 170c230,230 230,610 0,840 -240,230 -610,230 -840,0 -230,-230 -230,-610 0,-840 230,-230 600,-230 840,0zm1870 1880c230,230 230,610 0,840 -230,230 -600,230 -830,0 -230,-230 -230,-610 0,-840 230,-230 600,-230 830,0zm0 1670c230,230 230,600 0,840 -230,230 -600,230 -830,0 -230,-240 -230,-610 0,-840 230,-230 600,-230 830,0zm-3540 -3550c230,230 230,610 0,840 -230,230 -610,230 -840,0 -230,-230 -230,-610 0,-840 230,-230 610,-230 840,0zm1670 6260c-240,230 -610,230 -840,0 -230,-230 -230,-600 0,-830 230,-230 600,-230 840,0 230,230 230,600 0,830zm-1670 0c-230,230 -610,230 -840,0 -230,-230 -230,-600 0,-830 230,-230 610,-230 840,0 230,230 230,600 0,830zm-1880 -4380c230,230 230,610 0,840 -230,230 -610,230 -840,0 -230,-230 -230,-610 0,-840 230,-230 610,-230 840,0zm0 1670c230,230 230,600 0,840 -230,230 -610,230 -840,0 -230,-240 -230,-610 0,-840 230,-230 610,-230 840,0zm830 -1880l0 0c290,-290 760,-290 1050,0 0,10 10,20 20,20 230,210 590,210 810,-20l0 0 0 0c0,0 10,-10 10,-10l0 0c10,-10 10,-10 20,-10l0 0c0,-10 10,-10 10,-20l0 0c10,0 10,0 20,-10l0 0c0,0 10,-10 10,-10l0 0c10,0 10,-10 20,-10l0 0c0,0 10,-10 10,-10l0 0c10,-10 10,-10 20,-10l0 0c0,-10 10,-10 10,-10l0 0c10,-10 10,-10 20,-10 0,0 10,-10 10,-10l0 0c10,0 10,-10 20,-10l0 0c0,0 10,0 20,-10l0 0c0,0 10,0 10,-10l0 0c10,0 10,0 20,0l0 0c0,-10 10,-10 10,-10l0 0c10,0 20,0 20,-10l0 0c10,0 10,0 20,0l0 0c0,0 10,-10 20,-10l0 0c0,0 10,0 10,0l0 0c10,-10 10,-10 20,-10 0,0 10,0 20,0 0,0 10,-10 10,-10l0 0c10,0 20,0 20,0l0 0c10,0 10,0 20,0l0 0c0,0 10,-10 20,-10l0 0c0,0 10,0 10,0l0 0c10,0 20,0 20,0l0 0c10,0 10,0 20,0 0,0 10,0 20,0l0 0c0,0 10,0 10,0l0 0c10,0 20,0 20,0 10,0 10,0 20,0 10,0 10,0 20,0l0 0c0,0 10,0 20,0 0,0 10,0 10,0l0 0c10,0 10,0 20,0 10,0 10,0 20,0 0,0 10,10 20,10l0 0c0,0 10,0 10,0 10,0 10,0 20,0 10,0 10,10 20,10 0,0 10,0 20,0 0,0 10,0 10,10 10,0 10,0 20,0 0,0 10,10 20,10 0,0 10,0 10,0 10,10 10,10 20,10 10,0 10,0 20,10 0,0 10,0 10,0 10,10 10,10 20,10 0,10 10,10 20,10 0,0 10,10 10,10 10,0 10,10 20,10 0,0 10,0 10,10 10,0 10,0 20,10 0,0 10,0 10,10 10,0 10,10 20,10 0,0 10,10 10,10 10,0 10,10 20,10 0,10 10,10 10,10 10,10 10,10 20,20 0,0 10,0 10,10 0,0 10,10 10,10 10,10 10,10 20,20l0 0c0,0 10,10 10,10l0 0c0,0 10,10 10,10l0 0c10,10 10,10 10,20l0 0c10,0 10,10 20,10l0 0c0,10 0,10 10,20 0,0 0,0 0,10 10,0 10,0 10,0l0 0c0,10 0,10 10,20l0 0c0,0 0,10 10,10l0 0c0,10 0,10 10,20l0 0c0,0 0,10 10,10l0 0c0,10 0,10 0,10 0,0 0,10 10,10l0 0c0,10 0,10 0,20l0 0c10,0 10,10 10,10 0,0 0,0 0,0 0,10 0,10 10,10 0,0 0,10 0,10l0 0c0,10 0,10 10,20l0 0c0,0 0,0 0,10 0,0 0,0 0,0 0,10 0,10 10,10 0,10 0,10 0,10 0,0 0,10 0,10 0,0 0,0 0,10 10,0 10,10 10,10 0,0 0,0 0,0 0,10 0,10 0,20 0,0 0,0 0,0 10,0 10,10 10,10 0,0 0,10 0,10 0,0 0,10 0,10 0,0 0,0 0,10 0,0 0,0 10,10 0,0 0,0 0,0 0,10 0,10 0,20 0,0 0,0 0,0 0,10 0,10 0,20l0 0c0,0 0,10 0,10 0,0 0,0 0,10 10,0 10,10 10,10l0 0c0,10 0,10 0,20 0,0 0,0 0,0 0,10 0,20 0,30l0 10c0,0 0,10 0,10 0,0 0,0 0,0 0,10 0,30 0,40l0 0c0,0 0,10 0,10l0 10c0,10 -10,30 -10,50l0 0c0,10 0,20 0,30l0 0c-10,20 -10,30 -10,40l0 0c0,0 0,10 -10,20l0 0c-10,60 -40,120 -70,180l0 0c-10,10 -20,30 -30,40l0 0c-10,20 -20,30 -30,50l0 0c-20,20 -40,40 -50,50l-10 0 0 0 0 10c-230,230 -230,600 0,830l0 0 0 0c10,0 10,10 20,10l0 0c0,10 10,10 10,20l0 0c0,0 10,10 10,10l0 0c10,10 10,10 10,20l0 0c10,0 10,10 20,10l0 0c0,10 0,10 10,20l0 0c0,0 0,10 10,10l0 0c0,10 0,10 10,20l0 0c0,0 10,10 10,10l0 0c0,10 0,10 10,20 0,0 0,10 10,10l0 0c0,10 0,10 10,20l0 0c0,0 0,10 0,20l0 0c10,0 10,10 10,10l0 0c0,10 10,10 10,20l0 0c0,0 0,10 10,10l0 0c0,10 0,20 0,20l0 0c0,10 10,10 10,20l0 0c0,0 0,10 0,20l0 0c10,0 10,10 10,10l0 0c0,10 0,10 0,20 10,0 10,10 10,20 0,0 0,10 0,10l0 0c0,10 10,20 10,20l0 0c0,10 0,10 0,20l0 0c0,0 0,10 0,20l0 0c0,0 0,10 0,10l0 0c10,10 10,20 10,20l0 0c0,10 0,10 0,20 0,0 0,10 0,20l0 0c0,0 0,10 0,10l0 0c0,10 0,20 0,20 0,10 0,10 0,20 0,10 0,10 0,20l0 0c0,0 0,10 0,20 0,0 0,10 0,10l0 0c0,10 0,10 -10,20 0,10 0,10 0,20 0,0 0,10 0,20l0 0c0,0 0,10 0,10 0,10 -10,10 -10,20 0,10 0,10 0,20 0,0 0,10 -10,20 0,0 0,10 0,10 0,10 0,10 -10,20 0,0 0,10 0,20 0,0 -10,10 -10,10 0,10 0,10 0,20 -10,10 -10,10 -10,20 0,0 -10,10 -10,10 0,10 0,10 -10,20 0,0 0,10 0,20 -10,0 -10,10 -10,10 -10,10 -10,10 -10,20 -10,0 -10,10 -10,10 0,10 -10,10 -10,20 -10,0 -10,10 -10,10 -10,10 -10,10 -10,20 -10,0 -10,10 -10,10 -10,10 -10,10 -20,20 0,0 0,10 -10,10 0,10 -10,10 -10,20 0,0 -10,10 -10,10 -10,0 -10,10 -20,10 0,10 -10,10 -10,20l0 0c0,0 -10,10 -10,10l0 0c-10,0 -10,10 -20,10l0 0c0,10 -10,10 -10,10l0 0c-10,10 -10,10 -20,20l0 0c0,0 -10,0 -10,10 0,0 -10,0 -10,0 0,10 0,10 -10,10l0 0c0,0 -10,0 -10,10l0 0c-10,0 -10,0 -20,10l0 0c0,0 -10,0 -10,10l0 0c-10,0 -10,0 -20,10l0 0c0,0 0,0 -10,0 0,0 0,0 0,10l0 0c-10,0 -20,0 -20,0l0 0c0,10 -10,10 -10,10 0,0 -10,0 -10,0 0,0 0,0 -10,10 0,0 0,0 0,0l0 0c-10,0 -10,0 -20,10l0 0c0,0 -10,0 -10,0 0,0 -10,0 -10,0 0,0 0,0 -10,10 0,0 0,0 0,0 -10,0 -10,0 -10,0 -10,0 -10,0 -10,0 -10,10 -10,10 -10,10 -10,0 -10,0 -10,0 0,0 -10,0 -10,0 0,0 0,0 0,0 -10,10 -10,10 -20,10 0,0 0,0 0,0 -10,0 -10,0 -10,0 -10,0 -10,0 -10,0 0,0 -10,0 -10,10 0,0 -10,0 -10,0 0,0 -10,0 -10,0 0,0 0,0 0,0 -10,0 -10,0 -20,0l0 0c-10,0 -10,0 -20,0 0,0 0,0 0,0 0,10 -10,10 -10,10l-10 0c0,0 -10,0 -10,0 0,0 0,0 0,0 -20,0 -30,0 -40,0l0 0c0,0 -10,0 -10,0 0,0 -10,0 -10,0 -10,0 -20,0 -30,0l0 0c-10,0 -10,0 -20,0l0 0c-20,0 -40,-10 -50,-10l0 0c-10,0 -30,0 -40,0l0 0c-10,-10 -20,-10 -30,-10l0 0c-10,0 -10,0 -20,-10l0 0c-60,-10 -120,-40 -180,-70l0 0c-20,-10 -30,-20 -50,-30l0 0c-10,-10 -30,-20 -40,-30l0 0c-20,-20 -40,-40 -60,-50l0 -10 0 0 0 0c-230,-230 -600,-230 -830,0l0 0 0 0 0 0 0 0c-290,290 -760,290 -1050,0 -290,-280 -290,-750 0,-1040l0 0 0 0 0 0 0 0c230,-220 230,-580 30,-810 -10,-10 -20,-20 -30,-20 -290,-290 -290,-760 0,-1050l0 0zm1050 1040l0 0c-230,230 -230,610 0,840l0 0 0 0c0,10 10,10 20,20 230,210 590,200 810,-20l0 0 0 0 0 0 0 0c230,-230 230,-600 0,-830l0 0c-230,-230 -600,-230 -830,-10l0 0zm0 1880l0 0 0 0zm830 -1870l0 0 0 0zm0 830l0 0 0 0zm1040 0l0 0 0 0zm-1040 -1880l0 0 0 0zm-1880 1880l0 0 0 0zm1050 0l0 0 0 0z"/>
 </g>
</svg>
